<?xml version="1.0" encoding="utf-8"?>
<!-- Generator: Adobe Illustrator 16.0.0, SVG Export Plug-In . SVG Version: 6.00 Build 0)  -->
<!DOCTYPE svg PUBLIC "-//W3C//DTD SVG 1.1//EN" "http://www.w3.org/Graphics/SVG/1.1/DTD/svg11.dtd">
<svg version="1.1" id="Layer_1" xmlns="http://www.w3.org/2000/svg" xmlns:xlink="http://www.w3.org/1999/xlink" x="0px" y="0px"
	 width="724.835px" height="164.082px" viewBox="0 0 724.835 164.082" enable-background="new 0 0 724.835 164.082"
	 xml:space="preserve">
<rect x="299.898" y="215.229" fill="#D22E2A" width="125.04" height="125.039"/>
<rect y="-179.334" fill="#D22E2A" width="724.835" height="159.705"/>
<circle fill="#D22F2B" cx="79.854" cy="79.853" r="79.854"/>
<g>
	<path fill="#FFFFFF" d="M39.795,101.955v5.064c-3.838-0.614-6.907-1.673-9.209-3.177c-2.088-1.382-3.707-3.077-4.858-5.088
		c-1.151-2.011-1.727-4.167-1.727-6.47c0-2.793,0.959-5.188,2.878-7.183c1.918-1.995,4.213-2.993,6.884-2.993
		c2.547,0,4.719,0.897,6.515,2.693s2.693,3.953,2.693,6.47c0,1.965-0.66,3.791-1.979,5.479c-0.891,1.136-2.18,2.071-3.868,2.809
		c-0.552,0.276-0.844,0.491-0.875,0.645c-0.031,0.153,0.099,0.345,0.391,0.575c0.292,0.23,0.652,0.438,1.082,0.622
		C38.183,101.586,38.874,101.771,39.795,101.955z M46.932,95.555V51.996c0-1.903-0.552-2.978-1.658-3.224l-1.795-0.46
		c-1.474-0.368-2.21-1.212-2.21-2.532c0-0.829,0.346-1.45,1.036-1.865c0.691-0.414,1.711-0.621,3.062-0.621l1.52-0.046h20.49
		l1.243-0.047l1.658,0.185c1.197,0.338,1.796,1.09,1.796,2.256c0,1.229-0.615,2.058-1.842,2.486l-1.474,0.461
		c-0.921,0.307-1.381,1.32-1.381,3.039v38.493c0,5.617-1.842,9.899-5.525,12.847c-1.75,1.381-3.976,2.463-6.676,3.246
		c-2.702,0.782-5.556,1.174-8.564,1.174c-0.522,0-1.412-0.03-2.67-0.092v-5.341c0.214-0.153,0.368-0.261,0.46-0.323
		c0.614-0.46,1.051-0.836,1.312-1.128c0.261-0.291,0.483-0.651,0.668-1.082C46.748,98.409,46.932,97.12,46.932,95.555z"/>
	<path fill="#FFFFFF" d="M103.475,43.248v62.851h-20.49h-1.197c-1.105,0-1.957-0.207-2.556-0.622
		c-0.598-0.414-0.897-1.005-0.897-1.772c0-1.258,0.613-2.087,1.842-2.486c1.013-0.337,1.604-0.545,1.772-0.621
		c0.168-0.076,0.345-0.254,0.53-0.53c0.368-0.49,0.552-1.273,0.552-2.348V51.628c0-1.074-0.184-1.857-0.552-2.349
		c-0.185-0.276-0.361-0.452-0.53-0.529c-0.169-0.076-0.76-0.283-1.772-0.622c-1.229-0.398-1.842-1.227-1.842-2.486
		c0-0.767,0.299-1.358,0.897-1.772c0.599-0.414,1.451-0.621,2.556-0.621h1.197H103.475z M112.776,92.93V56.601
		c0-2.24-0.322-4.021-0.967-5.341c-0.399-0.859-0.891-1.489-1.473-1.889c-0.583-0.398-1.504-0.736-2.763-1.013v-5.11
		c1.626,0,3.008,0.062,4.144,0.184c3.898,0.431,7.673,2.088,11.327,4.973c3.622,2.794,6.309,6.432,8.058,10.913
		c1.811,4.543,2.717,9.577,2.717,15.103c0,6.262-1.151,11.826-3.454,16.691s-5.602,8.695-9.899,11.488
		c-2.088,1.351-4.029,2.271-5.825,2.763c-1.796,0.491-4.152,0.736-7.068,0.736v-4.973c1.289-0.338,2.187-0.645,2.693-0.921
		c0.507-0.276,0.944-0.706,1.313-1.289c0.46-0.675,0.775-1.435,0.944-2.279C112.691,95.793,112.776,94.558,112.776,92.93z"/>
</g>
<g>
	<g>
		<path fill="#D22F2B" d="M200.747,65.132c0,4.868-1.203,8.654-3.609,11.355c-2.406,2.702-5.613,4.053-9.623,4.053
			c-1.872,0-3.408-0.22-4.611-0.659v-6.415c1.088,0.744,2.492,1.117,4.21,1.117c4.544,0,6.816-3.514,6.816-10.54V38.782h6.816
			V65.132z"/>
		<path fill="#D22F2B" d="M233.568,79.853h-23.056v-41.07h22.139v5.785h-15.323v11.628h14.12v5.757h-14.12v12.144h16.239V79.853z"/>
		<path fill="#D22F2B" d="M272.605,79.853h-7.962l-6.559-10.998c-0.592-1.012-1.17-1.876-1.733-2.592
			c-0.563-0.716-1.136-1.303-1.718-1.762c-0.583-0.458-1.217-0.792-1.905-1.002c-0.687-0.21-1.46-0.315-2.32-0.315h-2.75v16.669
			h-6.788v-41.07h13.518c1.929,0,3.704,0.229,5.327,0.688c1.623,0.458,3.036,1.15,4.239,2.076c1.203,0.927,2.143,2.081,2.821,3.466
			c0.677,1.385,1.017,3.003,1.017,4.854c0,1.451-0.215,2.783-0.645,3.995c-0.429,1.213-1.041,2.291-1.833,3.236
			s-1.747,1.752-2.864,2.42c-1.117,0.669-2.373,1.185-3.766,1.547v0.114c0.745,0.421,1.394,0.884,1.947,1.39
			s1.079,1.026,1.575,1.561c0.497,0.535,0.988,1.142,1.475,1.818c0.487,0.679,1.026,1.466,1.618,2.363L272.605,79.853z
			 M247.659,44.31v13.347h5.671c1.05,0,2.019-0.162,2.907-0.487c0.888-0.324,1.656-0.792,2.305-1.403
			c0.649-0.61,1.155-1.355,1.518-2.233s0.544-1.861,0.544-2.95c0-1.966-0.621-3.504-1.862-4.611
			c-1.241-1.106-3.026-1.661-5.356-1.661H247.659z"/>
		<path fill="#D22F2B" d="M293.742,80.54c-5.919,0-10.659-1.919-14.22-5.757c-3.561-3.838-5.341-8.831-5.341-14.979
			c0-6.606,1.813-11.876,5.441-15.81c3.627-3.934,8.554-5.9,14.778-5.9c5.766,0,10.411,1.91,13.934,5.729
			c3.523,3.818,5.284,8.812,5.284,14.979c0,6.702-1.804,12-5.413,15.896C304.597,78.593,299.775,80.54,293.742,80.54z
			 M294.057,44.081c-3.762,0-6.821,1.403-9.179,4.21c-2.358,2.807-3.537,6.501-3.537,11.084c0,4.563,1.146,8.238,3.437,11.026
			c2.292,2.788,5.289,4.182,8.993,4.182c3.933,0,7.036-1.327,9.308-3.981c2.272-2.653,3.408-6.367,3.408-11.141
			c0-4.907-1.103-8.697-3.308-11.37C300.974,45.417,297.933,44.081,294.057,44.081z"/>
		<path fill="#D22F2B" d="M344.206,79.853H321.15v-41.07h22.139v5.785h-15.323v11.628h14.12v5.757h-14.12v12.144h16.239V79.853z"/>
		<path fill="#D22F2B" d="M386.335,79.853h-7.445l-19.619-30.187c-0.497-0.764-0.907-1.557-1.232-2.378h-0.171
			c0.152,0.879,0.229,2.76,0.229,5.643v26.922h-6.587v-41.07h7.934l18.959,29.471c0.803,1.223,1.318,2.063,1.547,2.521h0.115
			c-0.191-1.088-0.287-2.931-0.287-5.527V38.782h6.559V79.853z"/>
		<path fill="#D22F2B" d="M412.628,79.853v-41.07h11.856c15.142,0,22.712,6.673,22.712,20.02c0,6.34-2.101,11.433-6.301,15.279
			c-4.201,3.848-9.834,5.771-16.898,5.771H412.628z M419.416,44.567v29.528h5.441c4.793,0,8.521-1.317,11.185-3.952
			s3.995-6.358,3.995-11.17c0-9.604-4.975-14.406-14.922-14.406H419.416z"/>
		<path fill="#D22F2B" d="M477.755,79.853h-23.055v-41.07h22.139v5.785h-15.322v11.628h14.119v5.757h-14.119v12.144h16.238V79.853z"
			/>
		<path fill="#D22F2B" d="M519.886,79.853h-7.447l-19.618-30.187c-0.497-0.764-0.907-1.557-1.231-2.378h-0.172
			c0.152,0.879,0.229,2.76,0.229,5.643v26.922h-6.587v-41.07h7.934l18.96,29.471c0.802,1.223,1.317,2.063,1.547,2.521h0.114
			c-0.191-1.088-0.286-2.931-0.286-5.527V38.782h6.559V79.853z"/>
		<path fill="#D22F2B" d="M553.109,79.853h-23.056v-41.07h22.14v5.785H536.87v11.628h14.12v5.757h-14.12v12.144h16.239V79.853z"/>
		<path fill="#D22F2B" d="M589.052,78.134c-3.094,1.604-6.941,2.406-11.541,2.406c-5.959,0-10.732-1.881-14.32-5.643
			c-3.59-3.761-5.385-8.696-5.385-14.807c0-6.568,2.02-11.876,6.057-15.924c4.039-4.048,9.141-6.072,15.309-6.072
			c3.971,0,7.266,0.563,9.881,1.69v6.759c-2.768-1.642-5.824-2.463-9.164-2.463c-4.449,0-8.053,1.422-10.813,4.268
			c-2.76,2.845-4.139,6.645-4.139,11.398c0,4.525,1.289,8.129,3.867,10.812s5.967,4.024,10.166,4.024
			c3.877,0,7.236-0.917,10.082-2.75V78.134z"/>
		<path fill="#D22F2B" d="M627.917,79.853h-8.879l-14.291-18.788c-0.535-0.706-0.859-1.184-0.975-1.432h-0.113v20.22h-6.816v-41.07
			h6.816v19.304h0.113c0.23-0.42,0.555-0.888,0.975-1.403l13.775-17.9h8.162l-16.123,19.705L627.917,79.853z"/>
		<path fill="#D22F2B" d="M655.728,79.853h-23.057v-41.07h22.139v5.785h-15.322v11.628h14.121v5.757h-14.121v12.144h16.24V79.853z"
			/>
		<path fill="#D22F2B" d="M694.763,79.853h-7.961l-6.559-10.998c-0.592-1.012-1.17-1.876-1.732-2.592
			c-0.564-0.716-1.137-1.303-1.719-1.762c-0.584-0.458-1.217-0.792-1.904-1.002s-1.461-0.315-2.32-0.315h-2.75v16.669h-6.787v-41.07
			h13.518c1.928,0,3.705,0.229,5.328,0.688c1.621,0.458,3.035,1.15,4.238,2.076c1.203,0.927,2.143,2.081,2.82,3.466
			s1.018,3.003,1.018,4.854c0,1.451-0.215,2.783-0.645,3.995c-0.43,1.213-1.041,2.291-1.834,3.236
			c-0.791,0.945-1.746,1.752-2.863,2.42c-1.117,0.669-2.373,1.185-3.766,1.547v0.114c0.744,0.421,1.393,0.884,1.947,1.39
			c0.553,0.506,1.078,1.026,1.574,1.561c0.496,0.535,0.988,1.142,1.477,1.818c0.486,0.679,1.025,1.466,1.617,2.363L694.763,79.853z
			 M669.818,44.31v13.347h5.672c1.049,0,2.018-0.162,2.906-0.487c0.887-0.324,1.656-0.792,2.305-1.403
			c0.65-0.61,1.156-1.355,1.52-2.233c0.361-0.878,0.543-1.861,0.543-2.95c0-1.966-0.621-3.504-1.861-4.611
			c-1.242-1.106-3.027-1.661-5.355-1.661H669.818z"/>
		<path fill="#D22F2B" d="M722.603,79.853h-23.057v-41.07h22.139v5.785h-15.322v11.628h14.121v5.757h-14.121v12.144h16.24V79.853z"
			/>
	</g>
</g>
<g>
	<g>
		<path fill="#D22F2B" d="M194.974,114.045H184.93V96.152h9.645v2.521h-6.675v5.065h6.151v2.508h-6.151v5.291h7.075V114.045z"/>
		<path fill="#D22F2B" d="M208.063,114.045h-9.907V96.152h2.97v15.385h6.938V114.045z"/>
		<path fill="#D22F2B" d="M220.69,114.045h-10.044V96.152h9.645v2.521h-6.675v5.065h6.151v2.508h-6.151v5.291h7.075V114.045z"/>
		<path fill="#D22F2B" d="M237.41,114.045h-3.868l-6.227-8.186c-0.233-0.308-0.375-0.516-0.424-0.624h-0.05v8.81h-2.97V96.152h2.97
			v8.409h0.05c0.1-0.183,0.241-0.387,0.424-0.611l6.002-7.798h3.556l-7.025,8.584L237.41,114.045z"/>
		<path fill="#D22F2B" d="M250.961,98.673h-5.141v15.372h-2.97V98.673h-5.128v-2.521h13.239V98.673z"/>
		<path fill="#D22F2B" d="M267.407,114.045h-3.469l-2.857-4.791c-0.258-0.441-0.51-0.817-0.755-1.13
			c-0.246-0.312-0.495-0.567-0.749-0.768c-0.254-0.199-0.53-0.345-0.83-0.437c-0.299-0.091-0.636-0.137-1.01-0.137h-1.198v7.262
			h-2.957V96.152h5.89c0.84,0,1.613,0.1,2.321,0.299c0.707,0.2,1.322,0.502,1.847,0.905c0.524,0.403,0.934,0.906,1.229,1.51
			c0.295,0.603,0.443,1.308,0.443,2.114c0,0.633-0.094,1.213-0.281,1.741s-0.454,0.998-0.798,1.41
			c-0.346,0.411-0.761,0.763-1.248,1.054c-0.487,0.292-1.034,0.517-1.641,0.674v0.05c0.324,0.184,0.607,0.385,0.848,0.605
			s0.47,0.447,0.687,0.68c0.216,0.233,0.431,0.497,0.643,0.793c0.212,0.295,0.447,0.639,0.705,1.029L267.407,114.045z
			 M256.539,98.561v5.814h2.471c0.458,0,0.88-0.07,1.267-0.212s0.722-0.346,1.004-0.612c0.283-0.266,0.503-0.59,0.661-0.973
			c0.158-0.383,0.237-0.812,0.237-1.285c0-0.856-0.271-1.526-0.811-2.009c-0.541-0.482-1.319-0.724-2.333-0.724H256.539z"/>
		<path fill="#D22F2B" d="M272.535,114.045h-3.057V96.152h3.057V114.045z"/>
		<path fill="#D22F2B" d="M289.417,113.296c-1.348,0.699-3.024,1.049-5.028,1.049c-2.595,0-4.675-0.819-6.239-2.458
			c-1.564-1.639-2.346-3.789-2.346-6.451c0-2.861,0.879-5.174,2.639-6.938s3.982-2.646,6.669-2.646c1.73,0,3.165,0.245,4.305,0.736
			v2.944c-1.206-0.715-2.537-1.073-3.993-1.073c-1.938,0-3.508,0.62-4.71,1.859c-1.202,1.24-1.803,2.896-1.803,4.967
			c0,1.971,0.562,3.541,1.684,4.71c1.123,1.169,2.6,1.753,4.43,1.753c1.688,0,3.153-0.399,4.392-1.198V113.296z"/>
		<path fill="#D22F2B" d="M295.855,114.045h-3.057V96.152h3.057V114.045z"/>
		<path fill="#D22F2B" d="M311.739,98.673h-5.141v15.372h-2.97V98.673H298.5v-2.521h13.239V98.673z"/>
		<path fill="#D22F2B" d="M324.404,114.045H314.36V96.152h9.645v2.521h-6.675v5.065h6.151v2.508h-6.151v5.291h7.075V114.045z"/>
		<path fill="#D22F2B" d="M330.63,114.045h-3.057V96.152h3.057V114.045z"/>
		<path fill="#D22F2B" d="M346.515,98.673h-5.141v15.372h-2.97V98.673h-5.128v-2.521h13.239V98.673z"/>
		<path fill="#D22F2B" d="M362.561,108.131h-6.813v-2.134h6.813V108.131z"/>
		<path fill="#D22F2B" d="M387.478,96.152l-6.426,17.893h-3.318l-6.314-17.893h3.244l4.417,13.575
			c0.141,0.433,0.25,0.936,0.324,1.51h0.049c0.059-0.474,0.18-0.985,0.363-1.534l4.516-13.551H387.478z"/>
		<path fill="#D22F2B" d="M399.893,114.045h-10.044V96.152h9.645v2.521h-6.676v5.065h6.152v2.508h-6.152v5.291h7.075V114.045z"/>
		<path fill="#D22F2B" d="M418.248,114.045h-3.244l-8.547-13.151c-0.216-0.333-0.396-0.678-0.536-1.036h-0.075
			c0.066,0.383,0.1,1.202,0.1,2.459v11.729h-2.869V96.152h3.456l8.26,12.839c0.35,0.533,0.574,0.898,0.674,1.099h0.05
			c-0.083-0.475-0.125-1.277-0.125-2.408V96.152h2.857V114.045z"/>
		<path fill="#D22F2B" d="M434.157,98.673h-5.141v15.372h-2.97V98.673h-5.128v-2.521h13.238V98.673z"/>
		<path fill="#D22F2B" d="M439.822,114.045h-3.057V96.152h3.057V114.045z"/>
		<path fill="#D22F2B" d="M454.134,114.045h-9.907V96.152h2.969v15.385h6.938V114.045z"/>
		<path fill="#D22F2B" d="M472.077,114.045h-3.257l-1.609-4.555h-7.037l-1.548,4.555h-3.244l6.7-17.893h3.345L472.077,114.045z
			 M466.424,107.07l-2.483-7.138c-0.074-0.232-0.153-0.607-0.236-1.123h-0.051c-0.074,0.475-0.158,0.849-0.249,1.123l-2.458,7.138
			H466.424z"/>
		<path fill="#D22F2B" d="M484.205,98.673h-5.141v15.372h-2.97V98.673h-5.128v-2.521h13.238V98.673z"/>
		<path fill="#D22F2B" d="M489.87,114.045h-3.057V96.152h3.057V114.045z"/>
		<path fill="#D22F2B" d="M504.319,114.045h-10.044V96.152h9.645v2.521h-6.676v5.065h6.152v2.508h-6.152v5.291h7.075V114.045z"/>
		<path fill="#D22F2B" d="M520.926,108.131h-6.813v-2.134h6.813V108.131z"/>
		<path fill="#D22F2B" d="M544.022,97.45l-9.807,14.087h9.683v2.508H530.06v-1.36l9.845-14.012h-9.084v-2.521h13.201V97.45z"/>
		<path fill="#D22F2B" d="M554.192,114.345c-2.579,0-4.644-0.836-6.195-2.509c-1.552-1.672-2.327-3.847-2.327-6.525
			c0-2.878,0.79-5.174,2.371-6.888c1.58-1.714,3.727-2.57,6.438-2.57c2.512,0,4.535,0.832,6.07,2.495
			c1.534,1.664,2.302,3.84,2.302,6.526c0,2.92-0.786,5.228-2.358,6.925S556.82,114.345,554.192,114.345z M554.329,98.46
			c-1.639,0-2.972,0.612-3.999,1.835s-1.541,2.832-1.541,4.828c0,1.988,0.499,3.59,1.498,4.805c0.998,1.214,2.304,1.821,3.918,1.821
			c1.713,0,3.064-0.578,4.055-1.734s1.485-2.774,1.485-4.854c0-2.138-0.48-3.789-1.441-4.954
			C557.342,99.043,556.017,98.46,554.329,98.46z"/>
		<path fill="#D22F2B" d="M581.305,114.045h-3.244l-8.547-13.151c-0.216-0.333-0.396-0.678-0.536-1.036h-0.075
			c0.066,0.383,0.1,1.202,0.1,2.459v11.729h-2.869V96.152h3.456l8.26,12.839c0.35,0.533,0.574,0.898,0.674,1.099h0.05
			c-0.083-0.475-0.125-1.277-0.125-2.408V96.152h2.857V114.045z"/>
		<path fill="#D22F2B" d="M600.907,114.045h-3.244l-8.547-13.151c-0.216-0.333-0.396-0.678-0.536-1.036h-0.075
			c0.066,0.383,0.1,1.202,0.1,2.459v11.729h-2.869V96.152h3.456l8.26,12.839c0.35,0.533,0.574,0.898,0.674,1.099h0.05
			c-0.083-0.475-0.125-1.277-0.125-2.408V96.152h2.857V114.045z"/>
		<path fill="#D22F2B" d="M615.381,114.045h-10.044V96.152h9.645v2.521h-6.676v5.065h6.152v2.508h-6.152v5.291h7.075V114.045z"/>
		<path fill="#D22F2B" d="M621.521,107.557v6.488h-2.957V96.152h5.428c2.054,0,3.647,0.479,4.778,1.435
			c1.131,0.957,1.697,2.305,1.697,4.043s-0.591,3.161-1.771,4.268c-1.182,1.106-2.779,1.659-4.792,1.659H621.521z M621.521,98.598
			v6.538h1.921c1.273,0,2.242-0.295,2.907-0.886c0.666-0.591,0.999-1.423,0.999-2.495c0-2.104-1.224-3.157-3.669-3.157H621.521z"/>
		<path fill="#D22F2B" d="M646.438,114.045h-3.257l-1.609-4.555h-7.037l-1.548,4.555h-3.244l6.7-17.893h3.345L646.438,114.045z
			 M640.786,107.07l-2.483-7.138c-0.074-0.232-0.153-0.607-0.236-1.123h-0.051c-0.074,0.475-0.158,0.849-0.249,1.123l-2.458,7.138
			H640.786z"/>
		<path fill="#D22F2B" d="M664.069,114.045h-3.244l-8.547-13.151c-0.216-0.333-0.396-0.678-0.536-1.036h-0.075
			c0.066,0.383,0.1,1.202,0.1,2.459v11.729h-2.869V96.152h3.456l8.26,12.839c0.35,0.533,0.574,0.898,0.674,1.099h0.05
			c-0.083-0.475-0.125-1.277-0.125-2.408V96.152h2.857V114.045z"/>
		<path fill="#D22F2B" d="M678.543,114.045H668.5V96.152h9.645v2.521h-6.676v5.065h6.152v2.508h-6.152v5.291h7.075V114.045z"/>
		<path fill="#D22F2B" d="M691.632,114.045h-9.907V96.152h2.969v15.385h6.938V114.045z"/>
		<path fill="#D22F2B" d="M704.259,114.045h-10.044V96.152h9.645v2.521h-6.676v5.065h6.152v2.508h-6.152v5.291h7.075V114.045z"/>
		<path fill="#D22F2B" d="M722.614,114.045h-3.244l-8.547-13.151c-0.216-0.333-0.396-0.678-0.536-1.036h-0.075
			c0.066,0.383,0.1,1.202,0.1,2.459v11.729h-2.869V96.152h3.456l8.26,12.839c0.35,0.533,0.574,0.898,0.674,1.099h0.05
			c-0.083-0.475-0.125-1.277-0.125-2.408V96.152h2.857V114.045z"/>
	</g>
</g>
<circle fill="#FFFFFF" cx="79.854" cy="-99.481" r="79.854"/>
<g>
	<path fill="#D22E2A" d="M39.795-77.379v5.064c-3.838-0.614-6.907-1.673-9.209-3.177c-2.088-1.382-3.707-3.077-4.858-5.088
		c-1.151-2.011-1.727-4.167-1.727-6.47c0-2.793,0.959-5.188,2.878-7.183c1.918-1.995,4.213-2.993,6.884-2.993
		c2.547,0,4.719,0.897,6.515,2.693s2.693,3.953,2.693,6.47c0,1.965-0.66,3.791-1.979,5.479c-0.891,1.136-2.18,2.071-3.868,2.809
		c-0.552,0.276-0.844,0.491-0.875,0.645c-0.031,0.153,0.099,0.345,0.391,0.575c0.292,0.23,0.652,0.438,1.082,0.622
		C38.183-77.748,38.874-77.563,39.795-77.379z M46.932-83.779v-43.559c0-1.903-0.552-2.978-1.658-3.224l-1.795-0.46
		c-1.474-0.368-2.21-1.212-2.21-2.532c0-0.829,0.346-1.45,1.036-1.865c0.691-0.414,1.711-0.621,3.062-0.621l1.52-0.046h20.49
		l1.243-0.047l1.658,0.185c1.197,0.338,1.796,1.09,1.796,2.256c0,1.229-0.615,2.058-1.842,2.486l-1.474,0.461
		c-0.921,0.307-1.381,1.32-1.381,3.039v38.493c0,5.617-1.842,9.899-5.525,12.847c-1.75,1.381-3.976,2.463-6.676,3.246
		c-2.702,0.782-5.556,1.174-8.564,1.174c-0.522,0-1.412-0.03-2.67-0.092v-5.341c0.214-0.153,0.368-0.261,0.46-0.323
		c0.614-0.46,1.051-0.836,1.312-1.128c0.261-0.291,0.483-0.651,0.668-1.082C46.748-80.925,46.932-82.214,46.932-83.779z"/>
	<path fill="#D22E2A" d="M103.475-136.086v62.851h-20.49h-1.197c-1.105,0-1.957-0.207-2.556-0.622
		c-0.598-0.414-0.897-1.005-0.897-1.772c0-1.258,0.613-2.087,1.842-2.486c1.013-0.337,1.604-0.545,1.772-0.621
		c0.168-0.076,0.345-0.254,0.53-0.53c0.368-0.49,0.552-1.273,0.552-2.348v-46.091c0-1.074-0.184-1.857-0.552-2.349
		c-0.185-0.276-0.361-0.452-0.53-0.529c-0.169-0.076-0.76-0.283-1.772-0.622c-1.229-0.398-1.842-1.227-1.842-2.486
		c0-0.767,0.299-1.358,0.897-1.772c0.599-0.414,1.451-0.621,2.556-0.621h1.197H103.475z M112.776-86.404v-36.329
		c0-2.24-0.322-4.021-0.967-5.341c-0.399-0.859-0.891-1.489-1.473-1.889c-0.583-0.398-1.504-0.736-2.763-1.013v-5.11
		c1.626,0,3.008,0.062,4.144,0.184c3.898,0.431,7.673,2.088,11.327,4.973c3.622,2.794,6.309,6.432,8.058,10.913
		c1.811,4.543,2.717,9.577,2.717,15.103c0,6.262-1.151,11.826-3.454,16.691s-5.602,8.695-9.899,11.488
		c-2.088,1.351-4.029,2.271-5.825,2.763c-1.796,0.491-4.152,0.736-7.068,0.736v-4.973c1.289-0.338,2.187-0.645,2.693-0.921
		c0.507-0.276,0.944-0.706,1.313-1.289c0.46-0.675,0.775-1.435,0.944-2.279C112.691-83.541,112.776-84.776,112.776-86.404z"/>
</g>
<g>
	<g>
		<path fill="#FFFFFF" d="M200.747-114.202c0,4.868-1.203,8.654-3.609,11.355c-2.406,2.702-5.613,4.053-9.623,4.053
			c-1.872,0-3.408-0.22-4.611-0.659v-6.415c1.088,0.744,2.492,1.117,4.21,1.117c4.544,0,6.816-3.514,6.816-10.54v-25.261h6.816
			V-114.202z"/>
		<path fill="#FFFFFF" d="M233.568-99.481h-23.056v-41.07h22.139v5.785h-15.323v11.628h14.12v5.757h-14.12v12.144h16.239V-99.481z"
			/>
		<path fill="#FFFFFF" d="M272.605-99.481h-7.962l-6.559-10.998c-0.592-1.012-1.17-1.876-1.733-2.592
			c-0.563-0.716-1.136-1.303-1.718-1.762c-0.583-0.458-1.217-0.792-1.905-1.002c-0.687-0.21-1.46-0.315-2.32-0.315h-2.75v16.669
			h-6.788v-41.07h13.518c1.929,0,3.704,0.229,5.327,0.688c1.623,0.458,3.036,1.15,4.239,2.076c1.203,0.927,2.143,2.081,2.821,3.466
			c0.677,1.385,1.017,3.003,1.017,4.854c0,1.451-0.215,2.783-0.645,3.995c-0.429,1.213-1.041,2.291-1.833,3.236
			s-1.747,1.752-2.864,2.42c-1.117,0.669-2.373,1.185-3.766,1.547v0.114c0.745,0.421,1.394,0.884,1.947,1.39
			s1.079,1.026,1.575,1.561c0.497,0.535,0.988,1.142,1.475,1.818c0.487,0.679,1.026,1.466,1.618,2.363L272.605-99.481z
			 M247.659-135.024v13.347h5.671c1.05,0,2.019-0.162,2.907-0.487c0.888-0.324,1.656-0.792,2.305-1.403
			c0.649-0.61,1.155-1.355,1.518-2.233s0.544-1.861,0.544-2.95c0-1.966-0.621-3.504-1.862-4.611
			c-1.241-1.106-3.026-1.661-5.356-1.661H247.659z"/>
		<path fill="#FFFFFF" d="M293.742-98.794c-5.919,0-10.659-1.919-14.22-5.757c-3.561-3.838-5.341-8.831-5.341-14.979
			c0-6.606,1.813-11.876,5.441-15.81c3.627-3.934,8.554-5.9,14.778-5.9c5.766,0,10.411,1.91,13.934,5.729
			c3.523,3.818,5.284,8.812,5.284,14.979c0,6.702-1.804,12-5.413,15.896C304.597-100.741,299.775-98.794,293.742-98.794z
			 M294.057-135.253c-3.762,0-6.821,1.403-9.179,4.21c-2.358,2.807-3.537,6.501-3.537,11.084c0,4.563,1.146,8.238,3.437,11.026
			c2.292,2.788,5.289,4.182,8.993,4.182c3.933,0,7.036-1.327,9.308-3.981c2.272-2.653,3.408-6.367,3.408-11.141
			c0-4.907-1.103-8.697-3.308-11.37C300.974-133.917,297.933-135.253,294.057-135.253z"/>
		<path fill="#FFFFFF" d="M344.206-99.481H321.15v-41.07h22.139v5.785h-15.323v11.628h14.12v5.757h-14.12v12.144h16.239V-99.481z"/>
		<path fill="#FFFFFF" d="M386.335-99.481h-7.445l-19.619-30.187c-0.497-0.764-0.907-1.557-1.232-2.378h-0.171
			c0.152,0.879,0.229,2.76,0.229,5.643v26.922h-6.587v-41.07h7.934l18.959,29.471c0.803,1.223,1.318,2.063,1.547,2.521h0.115
			c-0.191-1.088-0.287-2.931-0.287-5.527v-26.464h6.559V-99.481z"/>
		<path fill="#FFFFFF" d="M412.628-99.481v-41.07h11.856c15.142,0,22.712,6.673,22.712,20.02c0,6.34-2.101,11.433-6.301,15.279
			c-4.201,3.848-9.834,5.771-16.898,5.771H412.628z M419.416-134.767v29.528h5.441c4.793,0,8.521-1.317,11.185-3.952
			s3.995-6.358,3.995-11.17c0-9.604-4.975-14.406-14.922-14.406H419.416z"/>
		<path fill="#FFFFFF" d="M477.755-99.481h-23.055v-41.07h22.139v5.785h-15.322v11.628h14.119v5.757h-14.119v12.144h16.238V-99.481z
			"/>
		<path fill="#FFFFFF" d="M519.886-99.481h-7.447l-19.618-30.187c-0.497-0.764-0.907-1.557-1.231-2.378h-0.172
			c0.152,0.879,0.229,2.76,0.229,5.643v26.922h-6.587v-41.07h7.934l18.96,29.471c0.802,1.223,1.317,2.063,1.547,2.521h0.114
			c-0.191-1.088-0.286-2.931-0.286-5.527v-26.464h6.559V-99.481z"/>
		<path fill="#FFFFFF" d="M553.109-99.481h-23.056v-41.07h22.14v5.785H536.87v11.628h14.12v5.757h-14.12v12.144h16.239V-99.481z"/>
		<path fill="#FFFFFF" d="M589.052-101.2c-3.094,1.604-6.941,2.406-11.541,2.406c-5.959,0-10.732-1.881-14.32-5.643
			c-3.59-3.761-5.385-8.696-5.385-14.807c0-6.568,2.02-11.876,6.057-15.924c4.039-4.048,9.141-6.072,15.309-6.072
			c3.971,0,7.266,0.563,9.881,1.69v6.759c-2.768-1.642-5.824-2.463-9.164-2.463c-4.449,0-8.053,1.422-10.813,4.268
			c-2.76,2.845-4.139,6.645-4.139,11.398c0,4.525,1.289,8.129,3.867,10.812s5.967,4.024,10.166,4.024
			c3.877,0,7.236-0.917,10.082-2.75V-101.2z"/>
		<path fill="#FFFFFF" d="M627.917-99.481h-8.879l-14.291-18.788c-0.535-0.706-0.859-1.184-0.975-1.432h-0.113v20.22h-6.816v-41.07
			h6.816v19.304h0.113c0.23-0.42,0.555-0.888,0.975-1.403l13.775-17.9h8.162l-16.123,19.705L627.917-99.481z"/>
		<path fill="#FFFFFF" d="M655.728-99.481h-23.057v-41.07h22.139v5.785h-15.322v11.628h14.121v5.757h-14.121v12.144h16.24V-99.481z"
			/>
		<path fill="#FFFFFF" d="M694.763-99.481h-7.961l-6.559-10.998c-0.592-1.012-1.17-1.876-1.732-2.592
			c-0.564-0.716-1.137-1.303-1.719-1.762c-0.584-0.458-1.217-0.792-1.904-1.002s-1.461-0.315-2.32-0.315h-2.75v16.669h-6.787v-41.07
			h13.518c1.928,0,3.705,0.229,5.328,0.688c1.621,0.458,3.035,1.15,4.238,2.076c1.203,0.927,2.143,2.081,2.82,3.466
			s1.018,3.003,1.018,4.854c0,1.451-0.215,2.783-0.645,3.995c-0.43,1.213-1.041,2.291-1.834,3.236
			c-0.791,0.945-1.746,1.752-2.863,2.42c-1.117,0.669-2.373,1.185-3.766,1.547v0.114c0.744,0.421,1.393,0.884,1.947,1.39
			c0.553,0.506,1.078,1.026,1.574,1.561c0.496,0.535,0.988,1.142,1.477,1.818c0.486,0.679,1.025,1.466,1.617,2.363L694.763-99.481z
			 M669.818-135.024v13.347h5.672c1.049,0,2.018-0.162,2.906-0.487c0.887-0.324,1.656-0.792,2.305-1.403
			c0.65-0.61,1.156-1.355,1.52-2.233c0.361-0.878,0.543-1.861,0.543-2.95c0-1.966-0.621-3.504-1.861-4.611
			c-1.242-1.106-3.027-1.661-5.355-1.661H669.818z"/>
		<path fill="#FFFFFF" d="M722.603-99.481h-23.057v-41.07h22.139v5.785h-15.322v11.628h14.121v5.757h-14.121v12.144h16.24V-99.481z"
			/>
	</g>
</g>
<g>
	<g>
		<path fill="#FFFFFF" d="M194.974-65.289H184.93v-17.893h9.645v2.521h-6.675v5.065h6.151v2.508h-6.151v5.291h7.075V-65.289z"/>
		<path fill="#FFFFFF" d="M208.063-65.289h-9.907v-17.893h2.97v15.385h6.938V-65.289z"/>
		<path fill="#FFFFFF" d="M220.69-65.289h-10.044v-17.893h9.645v2.521h-6.675v5.065h6.151v2.508h-6.151v5.291h7.075V-65.289z"/>
		<path fill="#FFFFFF" d="M237.41-65.289h-3.868l-6.227-8.186c-0.233-0.308-0.375-0.516-0.424-0.624h-0.05v8.81h-2.97v-17.893h2.97
			v8.409h0.05c0.1-0.183,0.241-0.387,0.424-0.611l6.002-7.798h3.556l-7.025,8.584L237.41-65.289z"/>
		<path fill="#FFFFFF" d="M250.961-80.661h-5.141v15.372h-2.97v-15.372h-5.128v-2.521h13.239V-80.661z"/>
		<path fill="#FFFFFF" d="M267.407-65.289h-3.469l-2.857-4.791c-0.258-0.441-0.51-0.817-0.755-1.13
			c-0.246-0.312-0.495-0.567-0.749-0.768c-0.254-0.199-0.53-0.345-0.83-0.437c-0.299-0.091-0.636-0.137-1.01-0.137h-1.198v7.262
			h-2.957v-17.893h5.89c0.84,0,1.613,0.1,2.321,0.299c0.707,0.2,1.322,0.502,1.847,0.905c0.524,0.403,0.934,0.906,1.229,1.51
			c0.295,0.603,0.443,1.308,0.443,2.114c0,0.633-0.094,1.213-0.281,1.741s-0.454,0.998-0.798,1.41
			c-0.346,0.411-0.761,0.763-1.248,1.054c-0.487,0.292-1.034,0.517-1.641,0.674v0.05c0.324,0.184,0.607,0.385,0.848,0.605
			s0.47,0.447,0.687,0.68c0.216,0.233,0.431,0.497,0.643,0.793c0.212,0.295,0.447,0.639,0.705,1.029L267.407-65.289z
			 M256.539-80.773v5.814h2.471c0.458,0,0.88-0.07,1.267-0.212s0.722-0.346,1.004-0.612c0.283-0.266,0.503-0.59,0.661-0.973
			c0.158-0.383,0.237-0.812,0.237-1.285c0-0.856-0.271-1.526-0.811-2.009c-0.541-0.482-1.319-0.724-2.333-0.724H256.539z"/>
		<path fill="#FFFFFF" d="M272.535-65.289h-3.057v-17.893h3.057V-65.289z"/>
		<path fill="#FFFFFF" d="M289.417-66.038c-1.348,0.699-3.024,1.049-5.028,1.049c-2.595,0-4.675-0.819-6.239-2.458
			c-1.564-1.639-2.346-3.789-2.346-6.451c0-2.861,0.879-5.174,2.639-6.938s3.982-2.646,6.669-2.646c1.73,0,3.165,0.245,4.305,0.736
			v2.944c-1.206-0.715-2.537-1.073-3.993-1.073c-1.938,0-3.508,0.62-4.71,1.859c-1.202,1.24-1.803,2.896-1.803,4.967
			c0,1.971,0.562,3.541,1.684,4.71c1.123,1.169,2.6,1.753,4.43,1.753c1.688,0,3.153-0.399,4.392-1.198V-66.038z"/>
		<path fill="#FFFFFF" d="M295.855-65.289h-3.057v-17.893h3.057V-65.289z"/>
		<path fill="#FFFFFF" d="M311.739-80.661h-5.141v15.372h-2.97v-15.372H298.5v-2.521h13.239V-80.661z"/>
		<path fill="#FFFFFF" d="M324.404-65.289H314.36v-17.893h9.645v2.521h-6.675v5.065h6.151v2.508h-6.151v5.291h7.075V-65.289z"/>
		<path fill="#FFFFFF" d="M330.63-65.289h-3.057v-17.893h3.057V-65.289z"/>
		<path fill="#FFFFFF" d="M346.515-80.661h-5.141v15.372h-2.97v-15.372h-5.128v-2.521h13.239V-80.661z"/>
		<path fill="#FFFFFF" d="M362.561-71.203h-6.813v-2.134h6.813V-71.203z"/>
		<path fill="#FFFFFF" d="M387.478-83.182l-6.426,17.893h-3.318l-6.314-17.893h3.244l4.417,13.575
			c0.141,0.433,0.25,0.936,0.324,1.51h0.049c0.059-0.474,0.18-0.985,0.363-1.534l4.516-13.551H387.478z"/>
		<path fill="#FFFFFF" d="M399.893-65.289h-10.044v-17.893h9.645v2.521h-6.676v5.065h6.152v2.508h-6.152v5.291h7.075V-65.289z"/>
		<path fill="#FFFFFF" d="M418.248-65.289h-3.244l-8.547-13.151c-0.216-0.333-0.396-0.678-0.536-1.036h-0.075
			c0.066,0.383,0.1,1.202,0.1,2.459v11.729h-2.869v-17.893h3.456l8.26,12.839c0.35,0.533,0.574,0.898,0.674,1.099h0.05
			c-0.083-0.475-0.125-1.277-0.125-2.408v-11.529h2.857V-65.289z"/>
		<path fill="#FFFFFF" d="M434.157-80.661h-5.141v15.372h-2.97v-15.372h-5.128v-2.521h13.238V-80.661z"/>
		<path fill="#FFFFFF" d="M439.822-65.289h-3.057v-17.893h3.057V-65.289z"/>
		<path fill="#FFFFFF" d="M454.134-65.289h-9.907v-17.893h2.969v15.385h6.938V-65.289z"/>
		<path fill="#FFFFFF" d="M472.077-65.289h-3.257l-1.609-4.555h-7.037l-1.548,4.555h-3.244l6.7-17.893h3.345L472.077-65.289z
			 M466.424-72.264l-2.483-7.138c-0.074-0.232-0.153-0.607-0.236-1.123h-0.051c-0.074,0.475-0.158,0.849-0.249,1.123l-2.458,7.138
			H466.424z"/>
		<path fill="#FFFFFF" d="M484.205-80.661h-5.141v15.372h-2.97v-15.372h-5.128v-2.521h13.238V-80.661z"/>
		<path fill="#FFFFFF" d="M489.87-65.289h-3.057v-17.893h3.057V-65.289z"/>
		<path fill="#FFFFFF" d="M504.319-65.289h-10.044v-17.893h9.645v2.521h-6.676v5.065h6.152v2.508h-6.152v5.291h7.075V-65.289z"/>
		<path fill="#FFFFFF" d="M520.926-71.203h-6.813v-2.134h6.813V-71.203z"/>
		<path fill="#FFFFFF" d="M544.022-81.884l-9.807,14.087h9.683v2.508H530.06v-1.36l9.845-14.012h-9.084v-2.521h13.201V-81.884z"/>
		<path fill="#FFFFFF" d="M554.192-64.989c-2.579,0-4.644-0.836-6.195-2.509c-1.552-1.672-2.327-3.847-2.327-6.525
			c0-2.878,0.79-5.174,2.371-6.888c1.58-1.714,3.727-2.57,6.438-2.57c2.512,0,4.535,0.832,6.07,2.495
			c1.534,1.664,2.302,3.84,2.302,6.526c0,2.92-0.786,5.228-2.358,6.925S556.82-64.989,554.192-64.989z M554.329-80.874
			c-1.639,0-2.972,0.612-3.999,1.835s-1.541,2.832-1.541,4.828c0,1.988,0.499,3.59,1.498,4.805c0.998,1.214,2.304,1.821,3.918,1.821
			c1.713,0,3.064-0.578,4.055-1.734s1.485-2.774,1.485-4.854c0-2.138-0.48-3.789-1.441-4.954
			C557.342-80.291,556.017-80.874,554.329-80.874z"/>
		<path fill="#FFFFFF" d="M581.305-65.289h-3.244l-8.547-13.151c-0.216-0.333-0.396-0.678-0.536-1.036h-0.075
			c0.066,0.383,0.1,1.202,0.1,2.459v11.729h-2.869v-17.893h3.456l8.26,12.839c0.35,0.533,0.574,0.898,0.674,1.099h0.05
			c-0.083-0.475-0.125-1.277-0.125-2.408v-11.529h2.857V-65.289z"/>
		<path fill="#FFFFFF" d="M600.907-65.289h-3.244l-8.547-13.151c-0.216-0.333-0.396-0.678-0.536-1.036h-0.075
			c0.066,0.383,0.1,1.202,0.1,2.459v11.729h-2.869v-17.893h3.456l8.26,12.839c0.35,0.533,0.574,0.898,0.674,1.099h0.05
			c-0.083-0.475-0.125-1.277-0.125-2.408v-11.529h2.857V-65.289z"/>
		<path fill="#FFFFFF" d="M615.381-65.289h-10.044v-17.893h9.645v2.521h-6.676v5.065h6.152v2.508h-6.152v5.291h7.075V-65.289z"/>
		<path fill="#FFFFFF" d="M621.521-71.777v6.488h-2.957v-17.893h5.428c2.054,0,3.647,0.479,4.778,1.435
			c1.131,0.957,1.697,2.305,1.697,4.043s-0.591,3.161-1.771,4.268c-1.182,1.106-2.779,1.659-4.792,1.659H621.521z M621.521-80.736
			v6.538h1.921c1.273,0,2.242-0.295,2.907-0.886c0.666-0.591,0.999-1.423,0.999-2.495c0-2.104-1.224-3.157-3.669-3.157H621.521z"/>
		<path fill="#FFFFFF" d="M646.438-65.289h-3.257l-1.609-4.555h-7.037l-1.548,4.555h-3.244l6.7-17.893h3.345L646.438-65.289z
			 M640.786-72.264l-2.483-7.138c-0.074-0.232-0.153-0.607-0.236-1.123h-0.051c-0.074,0.475-0.158,0.849-0.249,1.123l-2.458,7.138
			H640.786z"/>
		<path fill="#FFFFFF" d="M664.069-65.289h-3.244l-8.547-13.151c-0.216-0.333-0.396-0.678-0.536-1.036h-0.075
			c0.066,0.383,0.1,1.202,0.1,2.459v11.729h-2.869v-17.893h3.456l8.26,12.839c0.35,0.533,0.574,0.898,0.674,1.099h0.05
			c-0.083-0.475-0.125-1.277-0.125-2.408v-11.529h2.857V-65.289z"/>
		<path fill="#FFFFFF" d="M678.543-65.289H668.5v-17.893h9.645v2.521h-6.676v5.065h6.152v2.508h-6.152v5.291h7.075V-65.289z"/>
		<path fill="#FFFFFF" d="M691.632-65.289h-9.907v-17.893h2.969v15.385h6.938V-65.289z"/>
		<path fill="#FFFFFF" d="M704.259-65.289h-10.044v-17.893h9.645v2.521h-6.676v5.065h6.152v2.508h-6.152v5.291h7.075V-65.289z"/>
		<path fill="#FFFFFF" d="M722.614-65.289h-3.244l-8.547-13.151c-0.216-0.333-0.396-0.678-0.536-1.036h-0.075
			c0.066,0.383,0.1,1.202,0.1,2.459v11.729h-2.869v-17.893h3.456l8.26,12.839c0.35,0.533,0.574,0.898,0.674,1.099h0.05
			c-0.083-0.475-0.125-1.277-0.125-2.408v-11.529h2.857V-65.289z"/>
	</g>
</g>
<circle cx="79.854" cy="-276.481" r="79.854"/>
<g>
	<path fill="#FFFFFF" d="M39.795-254.379v5.064c-3.838-0.614-6.907-1.673-9.209-3.177c-2.088-1.382-3.707-3.077-4.858-5.088
		c-1.151-2.011-1.727-4.167-1.727-6.47c0-2.793,0.959-5.188,2.878-7.183c1.918-1.995,4.213-2.993,6.884-2.993
		c2.547,0,4.719,0.897,6.515,2.693s2.693,3.953,2.693,6.47c0,1.965-0.66,3.791-1.979,5.479c-0.891,1.136-2.18,2.071-3.868,2.809
		c-0.552,0.276-0.844,0.491-0.875,0.645c-0.031,0.153,0.099,0.345,0.391,0.575c0.292,0.23,0.652,0.438,1.082,0.622
		C38.183-254.748,38.874-254.563,39.795-254.379z M46.932-260.779v-43.559c0-1.903-0.552-2.978-1.658-3.224l-1.795-0.46
		c-1.474-0.368-2.21-1.212-2.21-2.532c0-0.829,0.346-1.45,1.036-1.865c0.691-0.414,1.711-0.621,3.062-0.621l1.52-0.046h20.49
		l1.243-0.047l1.658,0.185c1.197,0.338,1.796,1.09,1.796,2.256c0,1.229-0.615,2.058-1.842,2.486l-1.474,0.461
		c-0.921,0.307-1.381,1.32-1.381,3.039v38.493c0,5.617-1.842,9.899-5.525,12.847c-1.75,1.381-3.976,2.463-6.676,3.246
		c-2.702,0.782-5.556,1.174-8.564,1.174c-0.522,0-1.412-0.03-2.67-0.092v-5.341c0.214-0.153,0.368-0.261,0.46-0.323
		c0.614-0.46,1.051-0.836,1.312-1.128c0.261-0.291,0.483-0.651,0.668-1.082C46.748-257.925,46.932-259.214,46.932-260.779z"/>
	<path fill="#FFFFFF" d="M103.475-313.086v62.851h-20.49h-1.197c-1.105,0-1.957-0.207-2.556-0.622
		c-0.598-0.414-0.897-1.005-0.897-1.772c0-1.258,0.613-2.087,1.842-2.486c1.013-0.337,1.604-0.545,1.772-0.621
		c0.168-0.076,0.345-0.254,0.53-0.53c0.368-0.49,0.552-1.273,0.552-2.348v-46.091c0-1.074-0.184-1.857-0.552-2.349
		c-0.185-0.276-0.361-0.452-0.53-0.529c-0.169-0.076-0.76-0.283-1.772-0.622c-1.229-0.398-1.842-1.227-1.842-2.486
		c0-0.767,0.299-1.358,0.897-1.772c0.599-0.414,1.451-0.621,2.556-0.621h1.197H103.475z M112.776-263.404v-36.329
		c0-2.24-0.322-4.021-0.967-5.341c-0.399-0.859-0.891-1.489-1.473-1.889c-0.583-0.398-1.504-0.736-2.763-1.013v-5.11
		c1.626,0,3.008,0.062,4.144,0.184c3.898,0.431,7.673,2.088,11.327,4.973c3.622,2.794,6.309,6.432,8.058,10.913
		c1.811,4.543,2.717,9.577,2.717,15.103c0,6.262-1.151,11.826-3.454,16.691s-5.602,8.695-9.899,11.488
		c-2.088,1.351-4.029,2.271-5.825,2.763c-1.796,0.491-4.152,0.736-7.068,0.736v-4.973c1.289-0.338,2.187-0.645,2.693-0.921
		c0.507-0.276,0.944-0.706,1.313-1.289c0.46-0.675,0.775-1.435,0.944-2.279C112.691-260.541,112.776-261.776,112.776-263.404z"/>
</g>
<g>
	<g>
		<path d="M200.747-291.202c0,4.868-1.203,8.654-3.609,11.355c-2.406,2.702-5.613,4.053-9.623,4.053
			c-1.872,0-3.408-0.22-4.611-0.659v-6.415c1.088,0.744,2.492,1.117,4.21,1.117c4.544,0,6.816-3.514,6.816-10.54v-25.261h6.816
			V-291.202z"/>
		<path d="M233.568-276.481h-23.056v-41.07h22.139v5.785h-15.323v11.628h14.12v5.757h-14.12v12.144h16.239V-276.481z"/>
		<path d="M272.605-276.481h-7.962l-6.559-10.998c-0.592-1.012-1.17-1.876-1.733-2.592c-0.563-0.716-1.136-1.303-1.718-1.762
			c-0.583-0.458-1.217-0.792-1.905-1.002c-0.687-0.21-1.46-0.315-2.32-0.315h-2.75v16.669h-6.788v-41.07h13.518
			c1.929,0,3.704,0.229,5.327,0.688c1.623,0.458,3.036,1.15,4.239,2.076c1.203,0.927,2.143,2.081,2.821,3.466
			c0.677,1.385,1.017,3.003,1.017,4.854c0,1.451-0.215,2.783-0.645,3.995c-0.429,1.213-1.041,2.291-1.833,3.236
			s-1.747,1.752-2.864,2.42c-1.117,0.669-2.373,1.185-3.766,1.547v0.114c0.745,0.421,1.394,0.884,1.947,1.39
			s1.079,1.026,1.575,1.561c0.497,0.535,0.988,1.142,1.475,1.818c0.487,0.679,1.026,1.466,1.618,2.363L272.605-276.481z
			 M247.659-312.024v13.347h5.671c1.05,0,2.019-0.162,2.907-0.487c0.888-0.324,1.656-0.792,2.305-1.403
			c0.649-0.61,1.155-1.355,1.518-2.233s0.544-1.861,0.544-2.95c0-1.966-0.621-3.504-1.862-4.611
			c-1.241-1.106-3.026-1.661-5.356-1.661H247.659z"/>
		<path d="M293.742-275.794c-5.919,0-10.659-1.919-14.22-5.757c-3.561-3.838-5.341-8.831-5.341-14.979
			c0-6.606,1.813-11.876,5.441-15.81c3.627-3.934,8.554-5.9,14.778-5.9c5.766,0,10.411,1.91,13.934,5.729
			c3.523,3.818,5.284,8.812,5.284,14.979c0,6.702-1.804,12-5.413,15.896C304.597-277.741,299.775-275.794,293.742-275.794z
			 M294.057-312.253c-3.762,0-6.821,1.403-9.179,4.21c-2.358,2.807-3.537,6.501-3.537,11.084c0,4.563,1.146,8.238,3.437,11.026
			c2.292,2.788,5.289,4.182,8.993,4.182c3.933,0,7.036-1.327,9.308-3.981c2.272-2.653,3.408-6.367,3.408-11.141
			c0-4.907-1.103-8.697-3.308-11.37C300.974-310.917,297.933-312.253,294.057-312.253z"/>
		<path d="M344.206-276.481H321.15v-41.07h22.139v5.785h-15.323v11.628h14.12v5.757h-14.12v12.144h16.239V-276.481z"/>
		<path d="M386.335-276.481h-7.445l-19.619-30.187c-0.497-0.764-0.907-1.557-1.232-2.378h-0.171c0.152,0.879,0.229,2.76,0.229,5.643
			v26.922h-6.587v-41.07h7.934l18.959,29.471c0.803,1.223,1.318,2.063,1.547,2.521h0.115c-0.191-1.088-0.287-2.931-0.287-5.527
			v-26.464h6.559V-276.481z"/>
		<path d="M412.628-276.481v-41.07h11.856c15.142,0,22.712,6.673,22.712,20.02c0,6.34-2.101,11.433-6.301,15.279
			c-4.201,3.848-9.834,5.771-16.898,5.771H412.628z M419.416-311.767v29.528h5.441c4.793,0,8.521-1.317,11.185-3.952
			s3.995-6.358,3.995-11.17c0-9.604-4.975-14.406-14.922-14.406H419.416z"/>
		<path d="M477.755-276.481h-23.055v-41.07h22.139v5.785h-15.322v11.628h14.119v5.757h-14.119v12.144h16.238V-276.481z"/>
		<path d="M519.886-276.481h-7.447l-19.618-30.187c-0.497-0.764-0.907-1.557-1.231-2.378h-0.172c0.152,0.879,0.229,2.76,0.229,5.643
			v26.922h-6.587v-41.07h7.934l18.96,29.471c0.802,1.223,1.317,2.063,1.547,2.521h0.114c-0.191-1.088-0.286-2.931-0.286-5.527
			v-26.464h6.559V-276.481z"/>
		<path d="M553.109-276.481h-23.056v-41.07h22.14v5.785H536.87v11.628h14.12v5.757h-14.12v12.144h16.239V-276.481z"/>
		<path d="M589.052-278.2c-3.094,1.604-6.941,2.406-11.541,2.406c-5.959,0-10.732-1.881-14.32-5.643
			c-3.59-3.761-5.385-8.696-5.385-14.807c0-6.568,2.02-11.876,6.057-15.924c4.039-4.048,9.141-6.072,15.309-6.072
			c3.971,0,7.266,0.563,9.881,1.69v6.759c-2.768-1.642-5.824-2.463-9.164-2.463c-4.449,0-8.053,1.422-10.813,4.268
			c-2.76,2.845-4.139,6.645-4.139,11.398c0,4.525,1.289,8.129,3.867,10.812s5.967,4.024,10.166,4.024
			c3.877,0,7.236-0.917,10.082-2.75V-278.2z"/>
		<path d="M627.917-276.481h-8.879l-14.291-18.788c-0.535-0.706-0.859-1.184-0.975-1.432h-0.113v20.22h-6.816v-41.07h6.816v19.304
			h0.113c0.23-0.42,0.555-0.888,0.975-1.403l13.775-17.9h8.162l-16.123,19.705L627.917-276.481z"/>
		<path d="M655.728-276.481h-23.057v-41.07h22.139v5.785h-15.322v11.628h14.121v5.757h-14.121v12.144h16.24V-276.481z"/>
		<path d="M694.763-276.481h-7.961l-6.559-10.998c-0.592-1.012-1.17-1.876-1.732-2.592c-0.564-0.716-1.137-1.303-1.719-1.762
			c-0.584-0.458-1.217-0.792-1.904-1.002s-1.461-0.315-2.32-0.315h-2.75v16.669h-6.787v-41.07h13.518
			c1.928,0,3.705,0.229,5.328,0.688c1.621,0.458,3.035,1.15,4.238,2.076c1.203,0.927,2.143,2.081,2.82,3.466
			s1.018,3.003,1.018,4.854c0,1.451-0.215,2.783-0.645,3.995c-0.43,1.213-1.041,2.291-1.834,3.236
			c-0.791,0.945-1.746,1.752-2.863,2.42c-1.117,0.669-2.373,1.185-3.766,1.547v0.114c0.744,0.421,1.393,0.884,1.947,1.39
			c0.553,0.506,1.078,1.026,1.574,1.561c0.496,0.535,0.988,1.142,1.477,1.818c0.486,0.679,1.025,1.466,1.617,2.363L694.763-276.481z
			 M669.818-312.024v13.347h5.672c1.049,0,2.018-0.162,2.906-0.487c0.887-0.324,1.656-0.792,2.305-1.403
			c0.65-0.61,1.156-1.355,1.52-2.233c0.361-0.878,0.543-1.861,0.543-2.95c0-1.966-0.621-3.504-1.861-4.611
			c-1.242-1.106-3.027-1.661-5.355-1.661H669.818z"/>
		<path d="M722.603-276.481h-23.057v-41.07h22.139v5.785h-15.322v11.628h14.121v5.757h-14.121v12.144h16.24V-276.481z"/>
	</g>
</g>
<g>
	<g>
		<path d="M194.974-242.289H184.93v-17.893h9.645v2.521h-6.675v5.065h6.151v2.508h-6.151v5.291h7.075V-242.289z"/>
		<path d="M208.063-242.289h-9.907v-17.893h2.97v15.385h6.938V-242.289z"/>
		<path d="M220.69-242.289h-10.044v-17.893h9.645v2.521h-6.675v5.065h6.151v2.508h-6.151v5.291h7.075V-242.289z"/>
		<path d="M237.41-242.289h-3.868l-6.227-8.186c-0.233-0.308-0.375-0.516-0.424-0.624h-0.05v8.81h-2.97v-17.893h2.97v8.409h0.05
			c0.1-0.183,0.241-0.387,0.424-0.611l6.002-7.798h3.556l-7.025,8.584L237.41-242.289z"/>
		<path d="M250.961-257.661h-5.141v15.372h-2.97v-15.372h-5.128v-2.521h13.239V-257.661z"/>
		<path d="M267.407-242.289h-3.469l-2.857-4.791c-0.258-0.441-0.51-0.817-0.755-1.13c-0.246-0.312-0.495-0.567-0.749-0.768
			c-0.254-0.199-0.53-0.345-0.83-0.437c-0.299-0.091-0.636-0.137-1.01-0.137h-1.198v7.262h-2.957v-17.893h5.89
			c0.84,0,1.613,0.1,2.321,0.299c0.707,0.2,1.322,0.502,1.847,0.905c0.524,0.403,0.934,0.906,1.229,1.51
			c0.295,0.603,0.443,1.308,0.443,2.114c0,0.633-0.094,1.213-0.281,1.741s-0.454,0.998-0.798,1.41
			c-0.346,0.411-0.761,0.763-1.248,1.054c-0.487,0.292-1.034,0.517-1.641,0.674v0.05c0.324,0.184,0.607,0.385,0.848,0.605
			s0.47,0.447,0.687,0.68c0.216,0.233,0.431,0.497,0.643,0.793c0.212,0.295,0.447,0.639,0.705,1.029L267.407-242.289z
			 M256.539-257.773v5.814h2.471c0.458,0,0.88-0.07,1.267-0.212s0.722-0.346,1.004-0.612c0.283-0.266,0.503-0.59,0.661-0.973
			c0.158-0.383,0.237-0.812,0.237-1.285c0-0.856-0.271-1.526-0.811-2.009c-0.541-0.482-1.319-0.724-2.333-0.724H256.539z"/>
		<path d="M272.535-242.289h-3.057v-17.893h3.057V-242.289z"/>
		<path d="M289.417-243.038c-1.348,0.699-3.024,1.049-5.028,1.049c-2.595,0-4.675-0.819-6.239-2.458
			c-1.564-1.639-2.346-3.789-2.346-6.451c0-2.861,0.879-5.174,2.639-6.938s3.982-2.646,6.669-2.646c1.73,0,3.165,0.245,4.305,0.736
			v2.944c-1.206-0.715-2.537-1.073-3.993-1.073c-1.938,0-3.508,0.62-4.71,1.859c-1.202,1.24-1.803,2.896-1.803,4.967
			c0,1.971,0.562,3.541,1.684,4.71c1.123,1.169,2.6,1.753,4.43,1.753c1.688,0,3.153-0.399,4.392-1.198V-243.038z"/>
		<path d="M295.855-242.289h-3.057v-17.893h3.057V-242.289z"/>
		<path d="M311.739-257.661h-5.141v15.372h-2.97v-15.372H298.5v-2.521h13.239V-257.661z"/>
		<path d="M324.404-242.289H314.36v-17.893h9.645v2.521h-6.675v5.065h6.151v2.508h-6.151v5.291h7.075V-242.289z"/>
		<path d="M330.63-242.289h-3.057v-17.893h3.057V-242.289z"/>
		<path d="M346.515-257.661h-5.141v15.372h-2.97v-15.372h-5.128v-2.521h13.239V-257.661z"/>
		<path d="M362.561-248.203h-6.813v-2.134h6.813V-248.203z"/>
		<path d="M387.478-260.182l-6.426,17.893h-3.318l-6.314-17.893h3.244l4.417,13.575c0.141,0.433,0.25,0.936,0.324,1.51h0.049
			c0.059-0.474,0.18-0.985,0.363-1.534l4.516-13.551H387.478z"/>
		<path d="M399.893-242.289h-10.044v-17.893h9.645v2.521h-6.676v5.065h6.152v2.508h-6.152v5.291h7.075V-242.289z"/>
		<path d="M418.248-242.289h-3.244l-8.547-13.151c-0.216-0.333-0.396-0.678-0.536-1.036h-0.075c0.066,0.383,0.1,1.202,0.1,2.459
			v11.729h-2.869v-17.893h3.456l8.26,12.839c0.35,0.533,0.574,0.898,0.674,1.099h0.05c-0.083-0.475-0.125-1.277-0.125-2.408v-11.529
			h2.857V-242.289z"/>
		<path d="M434.157-257.661h-5.141v15.372h-2.97v-15.372h-5.128v-2.521h13.238V-257.661z"/>
		<path d="M439.822-242.289h-3.057v-17.893h3.057V-242.289z"/>
		<path d="M454.134-242.289h-9.907v-17.893h2.969v15.385h6.938V-242.289z"/>
		<path d="M472.077-242.289h-3.257l-1.609-4.555h-7.037l-1.548,4.555h-3.244l6.7-17.893h3.345L472.077-242.289z M466.424-249.264
			l-2.483-7.138c-0.074-0.232-0.153-0.607-0.236-1.123h-0.051c-0.074,0.475-0.158,0.849-0.249,1.123l-2.458,7.138H466.424z"/>
		<path d="M484.205-257.661h-5.141v15.372h-2.97v-15.372h-5.128v-2.521h13.238V-257.661z"/>
		<path d="M489.87-242.289h-3.057v-17.893h3.057V-242.289z"/>
		<path d="M504.319-242.289h-10.044v-17.893h9.645v2.521h-6.676v5.065h6.152v2.508h-6.152v5.291h7.075V-242.289z"/>
		<path d="M520.926-248.203h-6.813v-2.134h6.813V-248.203z"/>
		<path d="M544.022-258.884l-9.807,14.087h9.683v2.508H530.06v-1.36l9.845-14.012h-9.084v-2.521h13.201V-258.884z"/>
		<path d="M554.192-241.989c-2.579,0-4.644-0.836-6.195-2.509c-1.552-1.672-2.327-3.847-2.327-6.525c0-2.878,0.79-5.174,2.371-6.888
			c1.58-1.714,3.727-2.57,6.438-2.57c2.512,0,4.535,0.832,6.07,2.495c1.534,1.664,2.302,3.84,2.302,6.526
			c0,2.92-0.786,5.228-2.358,6.925S556.82-241.989,554.192-241.989z M554.329-257.874c-1.639,0-2.972,0.612-3.999,1.835
			s-1.541,2.832-1.541,4.828c0,1.988,0.499,3.59,1.498,4.805c0.998,1.214,2.304,1.821,3.918,1.821c1.713,0,3.064-0.578,4.055-1.734
			s1.485-2.774,1.485-4.854c0-2.138-0.48-3.789-1.441-4.954C557.342-257.291,556.017-257.874,554.329-257.874z"/>
		<path d="M581.305-242.289h-3.244l-8.547-13.151c-0.216-0.333-0.396-0.678-0.536-1.036h-0.075c0.066,0.383,0.1,1.202,0.1,2.459
			v11.729h-2.869v-17.893h3.456l8.26,12.839c0.35,0.533,0.574,0.898,0.674,1.099h0.05c-0.083-0.475-0.125-1.277-0.125-2.408v-11.529
			h2.857V-242.289z"/>
		<path d="M600.907-242.289h-3.244l-8.547-13.151c-0.216-0.333-0.396-0.678-0.536-1.036h-0.075c0.066,0.383,0.1,1.202,0.1,2.459
			v11.729h-2.869v-17.893h3.456l8.26,12.839c0.35,0.533,0.574,0.898,0.674,1.099h0.05c-0.083-0.475-0.125-1.277-0.125-2.408v-11.529
			h2.857V-242.289z"/>
		<path d="M615.381-242.289h-10.044v-17.893h9.645v2.521h-6.676v5.065h6.152v2.508h-6.152v5.291h7.075V-242.289z"/>
		<path d="M621.521-248.777v6.488h-2.957v-17.893h5.428c2.054,0,3.647,0.479,4.778,1.435c1.131,0.957,1.697,2.305,1.697,4.043
			s-0.591,3.161-1.771,4.268c-1.182,1.106-2.779,1.659-4.792,1.659H621.521z M621.521-257.736v6.538h1.921
			c1.273,0,2.242-0.295,2.907-0.886c0.666-0.591,0.999-1.423,0.999-2.495c0-2.104-1.224-3.157-3.669-3.157H621.521z"/>
		<path d="M646.438-242.289h-3.257l-1.609-4.555h-7.037l-1.548,4.555h-3.244l6.7-17.893h3.345L646.438-242.289z M640.786-249.264
			l-2.483-7.138c-0.074-0.232-0.153-0.607-0.236-1.123h-0.051c-0.074,0.475-0.158,0.849-0.249,1.123l-2.458,7.138H640.786z"/>
		<path d="M664.069-242.289h-3.244l-8.547-13.151c-0.216-0.333-0.396-0.678-0.536-1.036h-0.075c0.066,0.383,0.1,1.202,0.1,2.459
			v11.729h-2.869v-17.893h3.456l8.26,12.839c0.35,0.533,0.574,0.898,0.674,1.099h0.05c-0.083-0.475-0.125-1.277-0.125-2.408v-11.529
			h2.857V-242.289z"/>
		<path d="M678.543-242.289H668.5v-17.893h9.645v2.521h-6.676v5.065h6.152v2.508h-6.152v5.291h7.075V-242.289z"/>
		<path d="M691.632-242.289h-9.907v-17.893h2.969v15.385h6.938V-242.289z"/>
		<path d="M704.259-242.289h-10.044v-17.893h9.645v2.521h-6.676v5.065h6.152v2.508h-6.152v5.291h7.075V-242.289z"/>
		<path d="M722.614-242.289h-3.244l-8.547-13.151c-0.216-0.333-0.396-0.678-0.536-1.036h-0.075c0.066,0.383,0.1,1.202,0.1,2.459
			v11.729h-2.869v-17.893h3.456l8.26,12.839c0.35,0.533,0.574,0.898,0.674,1.099h0.05c-0.083-0.475-0.125-1.277-0.125-2.408v-11.529
			h2.857V-242.289z"/>
	</g>
</g>
<circle cx="182.48" cy="277.748" r="62.52"/>
<g>
	<path fill="#FFFFFF" d="M151.118,295.053v3.965c-3.004-0.48-5.408-1.31-7.21-2.487c-1.635-1.081-2.902-2.409-3.803-3.983
		c-0.901-1.574-1.352-3.263-1.352-5.065c0-2.187,0.751-4.061,2.253-5.623s3.299-2.344,5.39-2.344c1.995,0,3.695,0.703,5.101,2.109
		c1.406,1.405,2.109,3.095,2.109,5.064c0,1.539-0.517,2.969-1.55,4.29c-0.698,0.89-1.707,1.622-3.028,2.199
		c-0.433,0.217-0.662,0.385-0.685,0.505c-0.024,0.12,0.078,0.271,0.307,0.45c0.228,0.181,0.51,0.343,0.847,0.487
		C149.856,294.764,150.396,294.908,151.118,295.053z M156.706,290.041v-34.104c0-1.489-0.433-2.33-1.298-2.523l-1.406-0.36
		c-1.153-0.288-1.73-0.949-1.73-1.982c0-0.649,0.271-1.136,0.812-1.46c0.541-0.324,1.339-0.486,2.397-0.486l1.19-0.036h16.042
		l0.974-0.036l1.298,0.144c0.937,0.265,1.406,0.854,1.406,1.767c0,0.962-0.481,1.61-1.442,1.947l-1.154,0.36
		c-0.721,0.24-1.082,1.033-1.082,2.379v30.138c0,4.398-1.442,7.751-4.326,10.059c-1.37,1.081-3.113,1.929-5.228,2.541
		c-2.115,0.613-4.35,0.92-6.705,0.92c-0.409,0-1.106-0.024-2.091-0.072v-4.182c0.167-0.12,0.288-0.204,0.36-0.253
		c0.48-0.36,0.823-0.654,1.027-0.883c0.204-0.229,0.378-0.511,0.523-0.848C156.561,292.276,156.706,291.268,156.706,290.041z"/>
	<path fill="#FFFFFF" d="M200.975,249.089v49.208h-16.042h-0.938c-0.865,0-1.532-0.162-2-0.486
		c-0.469-0.325-0.703-0.787-0.703-1.389c0-0.984,0.48-1.634,1.442-1.946c0.793-0.265,1.256-0.427,1.388-0.486
		c0.132-0.061,0.271-0.198,0.415-0.415c0.289-0.384,0.433-0.997,0.433-1.839v-36.086c0-0.841-0.144-1.454-0.433-1.839
		c-0.144-0.216-0.283-0.354-0.415-0.414c-0.132-0.06-0.595-0.222-1.388-0.486c-0.961-0.313-1.442-0.961-1.442-1.947
		c0-0.601,0.234-1.063,0.703-1.388s1.135-0.486,2-0.486h0.938H200.975z M208.257,287.986v-28.443c0-1.754-0.252-3.148-0.757-4.182
		c-0.313-0.673-0.697-1.166-1.154-1.479c-0.457-0.312-1.178-0.576-2.163-0.793v-4.001c1.273,0,2.355,0.048,3.244,0.144
		c3.052,0.337,6.008,1.635,8.869,3.894c2.835,2.188,4.938,5.035,6.309,8.544c1.418,3.558,2.127,7.498,2.127,11.824
		c0,4.903-0.901,9.26-2.704,13.068c-1.803,3.81-4.386,6.808-7.751,8.994c-1.635,1.059-3.154,1.779-4.56,2.163
		c-1.406,0.385-3.251,0.577-5.534,0.577v-3.894c1.009-0.264,1.712-0.505,2.109-0.721c0.396-0.217,0.739-0.553,1.027-1.01
		c0.36-0.528,0.606-1.123,0.739-1.784C208.19,290.228,208.257,289.261,208.257,287.986z"/>
</g>
<circle fill="#FFFFFF" cx="362.418" cy="277.748" r="62.519"/>
<g>
	<path fill="#D22E2A" d="M331.055,295.053v3.965c-3.004-0.48-5.408-1.31-7.21-2.487c-1.635-1.081-2.902-2.409-3.803-3.983
		c-0.901-1.574-1.352-3.263-1.352-5.065c0-2.187,0.751-4.061,2.253-5.623s3.299-2.344,5.39-2.344c1.995,0,3.695,0.703,5.101,2.109
		c1.406,1.405,2.109,3.095,2.109,5.064c0,1.539-0.517,2.969-1.55,4.29c-0.698,0.89-1.707,1.622-3.028,2.199
		c-0.433,0.217-0.662,0.385-0.685,0.505c-0.024,0.12,0.078,0.271,0.307,0.45c0.228,0.181,0.51,0.343,0.847,0.487
		C329.793,294.764,330.333,294.908,331.055,295.053z M336.643,290.041v-34.104c0-1.489-0.433-2.33-1.298-2.523l-1.406-0.36
		c-1.153-0.288-1.73-0.949-1.73-1.982c0-0.649,0.271-1.136,0.812-1.46c0.541-0.324,1.339-0.486,2.397-0.486l1.19-0.036h16.042
		l0.974-0.036l1.298,0.144c0.937,0.265,1.406,0.854,1.406,1.767c0,0.962-0.481,1.61-1.442,1.947l-1.154,0.36
		c-0.721,0.24-1.082,1.033-1.082,2.379v30.138c0,4.398-1.442,7.751-4.326,10.059c-1.37,1.081-3.113,1.929-5.228,2.541
		c-2.115,0.613-4.35,0.92-6.705,0.92c-0.409,0-1.106-0.024-2.091-0.072v-4.182c0.167-0.12,0.288-0.204,0.36-0.253
		c0.48-0.36,0.823-0.654,1.027-0.883c0.204-0.229,0.378-0.511,0.523-0.848C336.498,292.276,336.643,291.268,336.643,290.041z"/>
	<path fill="#D22E2A" d="M380.913,249.089v49.208H364.87h-0.938c-0.865,0-1.532-0.162-2-0.486c-0.469-0.325-0.703-0.787-0.703-1.389
		c0-0.984,0.48-1.634,1.442-1.946c0.793-0.265,1.256-0.427,1.388-0.486c0.132-0.061,0.271-0.198,0.415-0.415
		c0.289-0.384,0.433-0.997,0.433-1.839v-36.086c0-0.841-0.144-1.454-0.433-1.839c-0.144-0.216-0.283-0.354-0.415-0.414
		c-0.132-0.06-0.595-0.222-1.388-0.486c-0.961-0.313-1.442-0.961-1.442-1.947c0-0.601,0.234-1.063,0.703-1.388s1.135-0.486,2-0.486
		h0.938H380.913z M388.194,287.986v-28.443c0-1.754-0.252-3.148-0.757-4.182c-0.313-0.673-0.697-1.166-1.153-1.479
		c-0.457-0.312-1.178-0.576-2.163-0.793v-4.001c1.273,0,2.355,0.048,3.244,0.144c3.053,0.337,6.009,1.635,8.869,3.894
		c2.835,2.188,4.938,5.035,6.309,8.544c1.418,3.558,2.127,7.498,2.127,11.824c0,4.903-0.901,9.26-2.704,13.068
		c-1.803,3.81-4.386,6.808-7.751,8.994c-1.635,1.059-3.154,1.779-4.56,2.163c-1.406,0.385-3.251,0.577-5.534,0.577v-3.894
		c1.01-0.264,1.713-0.505,2.109-0.721c0.396-0.217,0.738-0.553,1.027-1.01c0.36-0.528,0.606-1.123,0.738-1.784
		S388.194,289.261,388.194,287.986z"/>
</g>
<circle fill="#D22F2B" cx="539.751" cy="277.748" r="62.52"/>
<g>
	<path fill="#FFFFFF" d="M508.388,295.053v3.965c-3.004-0.48-5.407-1.31-7.21-2.487c-1.635-1.081-2.902-2.409-3.803-3.983
		c-0.901-1.574-1.353-3.263-1.353-5.065c0-2.187,0.751-4.061,2.253-5.623s3.299-2.344,5.39-2.344c1.995,0,3.695,0.703,5.102,2.109
		c1.406,1.405,2.108,3.095,2.108,5.064c0,1.539-0.517,2.969-1.55,4.29c-0.697,0.89-1.707,1.622-3.028,2.199
		c-0.433,0.217-0.661,0.385-0.685,0.505c-0.024,0.12,0.077,0.271,0.307,0.45c0.228,0.181,0.51,0.343,0.847,0.487
		C507.126,294.764,507.667,294.908,508.388,295.053z M513.976,290.041v-34.104c0-1.489-0.433-2.33-1.298-2.523l-1.406-0.36
		c-1.153-0.288-1.73-0.949-1.73-1.982c0-0.649,0.271-1.136,0.812-1.46s1.34-0.486,2.397-0.486l1.189-0.036h16.042l0.974-0.036
		l1.298,0.144c0.938,0.265,1.406,0.854,1.406,1.767c0,0.962-0.481,1.61-1.442,1.947l-1.153,0.36
		c-0.721,0.24-1.082,1.033-1.082,2.379v30.138c0,4.398-1.441,7.751-4.325,10.059c-1.37,1.081-3.113,1.929-5.228,2.541
		c-2.115,0.613-4.351,0.92-6.705,0.92c-0.409,0-1.106-0.024-2.091-0.072v-4.182c0.167-0.12,0.288-0.204,0.36-0.253
		c0.48-0.36,0.822-0.654,1.027-0.883c0.204-0.229,0.378-0.511,0.522-0.848C513.832,292.276,513.976,291.268,513.976,290.041z"/>
	<path fill="#FFFFFF" d="M558.246,249.089v49.208h-16.042h-0.938c-0.865,0-1.532-0.162-2.001-0.486
		c-0.469-0.325-0.703-0.787-0.703-1.389c0-0.984,0.48-1.634,1.442-1.946c0.793-0.265,1.256-0.427,1.388-0.486
		c0.132-0.061,0.271-0.198,0.415-0.415c0.288-0.384,0.433-0.997,0.433-1.839v-36.086c0-0.841-0.145-1.454-0.433-1.839
		c-0.145-0.216-0.283-0.354-0.415-0.414c-0.132-0.06-0.595-0.222-1.388-0.486c-0.962-0.313-1.442-0.961-1.442-1.947
		c0-0.601,0.234-1.063,0.703-1.388s1.136-0.486,2.001-0.486h0.938H558.246z M565.528,287.986v-28.443
		c0-1.754-0.252-3.148-0.757-4.182c-0.313-0.673-0.697-1.166-1.154-1.479c-0.456-0.312-1.178-0.576-2.162-0.793v-4.001
		c1.273,0,2.354,0.048,3.244,0.144c3.052,0.337,6.008,1.635,8.868,3.894c2.836,2.188,4.938,5.035,6.309,8.544
		c1.418,3.558,2.127,7.498,2.127,11.824c0,4.903-0.901,9.26-2.703,13.068c-1.803,3.81-4.387,6.808-7.751,8.994
		c-1.635,1.059-3.154,1.779-4.561,2.163c-1.406,0.385-3.251,0.577-5.533,0.577v-3.894c1.009-0.264,1.712-0.505,2.108-0.721
		c0.396-0.217,0.739-0.553,1.027-1.01c0.36-0.528,0.606-1.123,0.739-1.784C565.461,290.228,565.528,289.261,565.528,287.986z"/>
</g>
</svg>
